<svg id="Layer_1" data-name="Layer 1" xmlns="http://www.w3.org/2000/svg" viewBox="0 0 244.15 107.17"><defs><style>.cls-1{fill:#003;}.cls-2{fill:#fff;stroke:#000;}.cls-2,.cls-3,.cls-4,.cls-5{stroke-miterlimit:10;}.cls-3,.cls-4{fill:none;}.cls-3,.cls-4,.cls-5{stroke:#003;}.cls-3{stroke-width:3px;}.cls-4{stroke-width:2px;}</style></defs><title>logo_mirakul_final2</title><path class="cls-1" d="M252.67,154a3.29,3.29,0,0,0,0,.36.35.35,0,0,0,.08.2.31.31,0,0,0,.2.09l.4,0h.94c.51,0,.92,0,1.24,0a1.66,1.66,0,0,0,1.41-.85,8.45,8.45,0,0,0,.57-1.15l.48.1a3.06,3.06,0,0,1,0,.35c0,.19-.07.41-.12.66s-.1.5-.16.76-.11.49-.17.68a.46.46,0,0,1-.47.33l-1.78,0h-4.14a.2.2,0,0,1-.18-.08.32.32,0,0,1,0-.16v-9.32a1.51,1.51,0,0,0-.05-.43.6.6,0,0,0-.15-.26.55.55,0,0,0-.24-.13,1.21,1.21,0,0,0-.31,0,2.83,2.83,0,0,0-.42,0l-.06-.53,1-.16.82-.11.6-.06.31,0a.27.27,0,0,1,.31.31Z" transform="translate(-217.85 -48.52)"/><path class="cls-1" d="M259.36,149.1c.33-.13.66-.25,1-.35s.62-.19.91-.25.54-.12.77-.15a4.25,4.25,0,0,1,.58-.05,3.67,3.67,0,0,1,1.15.16,1.64,1.64,0,0,1,.75.5,2.07,2.07,0,0,1,.41.87,5.35,5.35,0,0,1,.11,1.27l0,3.11a2.66,2.66,0,0,0,0,.55c0,.17.07.34.11.51a.15.15,0,0,1,0,.08c0,.1-.06.15-.19.17l-.28.05-.32,0-.33,0h-.29a.21.21,0,0,1-.16-.06.41.41,0,0,1-.08-.17l-.12-.46c-.24.11-.49.21-.74.3s-.5.17-.73.24l-.63.16a2.39,2.39,0,0,1-.47.06,1.9,1.9,0,0,1-.88-.19,1.86,1.86,0,0,1-.61-.47,1.88,1.88,0,0,1-.35-.62,2.05,2.05,0,0,1-.11-.64,2,2,0,0,1,.2-.92,1.77,1.77,0,0,1,.53-.62,2.71,2.71,0,0,1,.69-.36,5.33,5.33,0,0,1,.87-.22c.32-.05.66-.09,1-.12l1.16-.06v-.32a4.1,4.1,0,0,0-.05-.79,1.52,1.52,0,0,0-.22-.59,1,1,0,0,0-.44-.36,1.73,1.73,0,0,0-.7-.12,5.26,5.26,0,0,0-1.07.12,11.78,11.78,0,0,0-1.27.34Zm3.95,3-.84.05-.72.07a2.36,2.36,0,0,0-.57.15,1,1,0,0,0-.4.28,1.1,1.1,0,0,0-.19.33,1.19,1.19,0,0,0-.08.44,1.45,1.45,0,0,0,.06.41,1,1,0,0,0,.22.39,1.2,1.2,0,0,0,.43.29,1.72,1.72,0,0,0,.68.12l.19,0,.31-.06.42-.12a3.65,3.65,0,0,0,.47-.19Z" transform="translate(-217.85 -48.52)"/><path class="cls-1" d="M269.1,149l1-.28.91-.23.78-.16a3.42,3.42,0,0,1,.58-.06,1.73,1.73,0,0,1,1,.31,2.79,2.79,0,0,1,.76.8,4,4,0,0,1,.49,1.08,4.16,4.16,0,0,1,.17,1.16,4,4,0,0,1-.37,1.77,3.66,3.66,0,0,1-1,1.26,4.14,4.14,0,0,1-1.44.75,5.86,5.86,0,0,1-1.71.25,7.1,7.1,0,0,1-.88-.05,6.63,6.63,0,0,1-.83-.14,4.83,4.83,0,0,1-.68-.22,1.36,1.36,0,0,1-.44-.27V144.49a1.08,1.08,0,0,0-.16-.69.67.67,0,0,0-.53-.19l-.39,0-.06-.46c.7-.19,1.27-.33,1.73-.41a7.7,7.7,0,0,1,.81-.12q.31,0,.31.34Zm0,4.72a.88.88,0,0,0,.16.53,1.21,1.21,0,0,0,.4.34,1.88,1.88,0,0,0,.52.19,2.84,2.84,0,0,0,.55.06,2.08,2.08,0,0,0,2.32-2.38,5,5,0,0,0-.13-1.11,3.89,3.89,0,0,0-.38-1,2.4,2.4,0,0,0-.62-.74,1.34,1.34,0,0,0-.84-.29,4.86,4.86,0,0,0-.72.1c-.36.07-.78.17-1.26.32Z" transform="translate(-217.85 -48.52)"/><path class="cls-1" d="M275.62,148.89l1-.24.78-.17.55-.1.28,0c.2,0,.3.12.3.34v.49l.67-.34q.34-.16.67-.28a5.18,5.18,0,0,1,.63-.18,2.42,2.42,0,0,1,.53-.07,1.08,1.08,0,0,1,.45.09,1,1,0,0,1,.33.24,1,1,0,0,1,.21.34,1.19,1.19,0,0,1,.07.39,1.16,1.16,0,0,1-.07.4,1,1,0,0,1-.22.35,1.07,1.07,0,0,1-.37.24,1.34,1.34,0,0,1-.51.09h-.3l-.11,0v-.21a.85.85,0,0,0-.18-.61.62.62,0,0,0-.45-.18,2,2,0,0,0-.64.12,4.52,4.52,0,0,0-.7.32v5.36a.25.25,0,0,1-.23.27l-.35.05-.36,0-.31,0H277q-.23,0-.23-.24v-5.2a1.09,1.09,0,0,0-.16-.69.64.64,0,0,0-.51-.18h-.2l-.24,0Z" transform="translate(-217.85 -48.52)"/><path class="cls-1" d="M282.83,149.1c.33-.13.66-.25,1-.35s.62-.19.91-.25.54-.12.77-.15a4.25,4.25,0,0,1,.58-.05,3.68,3.68,0,0,1,1.15.16,1.64,1.64,0,0,1,.75.5,2.07,2.07,0,0,1,.41.87,5.31,5.31,0,0,1,.11,1.27l0,3.11a2.52,2.52,0,0,0,0,.55c0,.17.07.34.1.51,0,0,0,0,0,.08s-.06.15-.19.17l-.28.05-.32,0-.32,0h-.29a.21.21,0,0,1-.16-.06.41.41,0,0,1-.08-.17l-.12-.46c-.24.11-.49.21-.74.3s-.5.17-.73.24-.44.12-.63.16a2.4,2.4,0,0,1-.47.06,1.91,1.91,0,0,1-.88-.19,1.86,1.86,0,0,1-.61-.47,1.9,1.9,0,0,1-.35-.62,2,2,0,0,1-.11-.64,2,2,0,0,1,.2-.92,1.8,1.8,0,0,1,.53-.62,2.76,2.76,0,0,1,.69-.36,5.3,5.3,0,0,1,.87-.22c.32-.05.66-.09,1-.12l1.16-.06v-.32a3.93,3.93,0,0,0-.05-.79,1.49,1.49,0,0,0-.22-.59,1,1,0,0,0-.44-.36,1.73,1.73,0,0,0-.7-.12,5.27,5.27,0,0,0-1.07.12,11.8,11.8,0,0,0-1.27.34Zm3.95,3-.84.05-.72.07a2.35,2.35,0,0,0-.57.15,1,1,0,0,0-.4.28,1.14,1.14,0,0,0-.19.33,1.22,1.22,0,0,0-.08.44,1.44,1.44,0,0,0,.06.41,1,1,0,0,0,.22.39,1.18,1.18,0,0,0,.42.29,1.72,1.72,0,0,0,.68.12l.19,0,.32-.06.42-.12a3.76,3.76,0,0,0,.47-.19Z" transform="translate(-217.85 -48.52)"/><path class="cls-1" d="M294.62,143.19c.7-.19,1.27-.33,1.73-.41a7.74,7.74,0,0,1,.81-.12c.2,0,.31.11.31.34v11.14a3.87,3.87,0,0,0,0,.6c0,.18.06.35.1.52v.06q0,.14-.19.19l-.28.05-.32,0-.33,0h-.3a.21.21,0,0,1-.16-.06.4.4,0,0,1-.08-.17l-.14-.53-.89.32-.83.26-.72.18a2.73,2.73,0,0,1-.55.07,2.06,2.06,0,0,1-1.12-.31,3.05,3.05,0,0,1-.85-.8,3.72,3.72,0,0,1-.54-1.08,3.84,3.84,0,0,1-.19-1.16,4,4,0,0,1,.35-1.72,3.7,3.7,0,0,1,1-1.26,4.23,4.23,0,0,1,1.43-.78,5.61,5.61,0,0,1,1.76-.27,7.62,7.62,0,0,1,1.13.08v-3.9a1.08,1.08,0,0,0-.16-.69.67.67,0,0,0-.53-.19l-.39,0Zm1.14,7a.88.88,0,0,0-.16-.53,1.21,1.21,0,0,0-.4-.34,1.87,1.87,0,0,0-.52-.19,2.83,2.83,0,0,0-.55-.06,2.74,2.74,0,0,0-1.06.18,1.85,1.85,0,0,0-.72.52,2.11,2.11,0,0,0-.4.8,3.72,3.72,0,0,0-.13,1,4.83,4.83,0,0,0,.11,1,3.49,3.49,0,0,0,.36,1,2.24,2.24,0,0,0,.65.75,1.61,1.61,0,0,0,1,.3l.26,0,.41-.07c.16,0,.34-.08.54-.14a5.76,5.76,0,0,0,.63-.23Z" transform="translate(-217.85 -48.52)"/><path class="cls-1" d="M302.8,155.69a3.54,3.54,0,0,1-1.43-.28,3.35,3.35,0,0,1-1.83-1.92,4.18,4.18,0,0,1,0-3,3.47,3.47,0,0,1,.81-1.19,3.62,3.62,0,0,1,1.23-.76,4.41,4.41,0,0,1,1.57-.27,3.73,3.73,0,0,1,1.45.27,3.31,3.31,0,0,1,1.12.75,3.39,3.39,0,0,1,.72,1.13,3.76,3.76,0,0,1,.26,1.4,4.15,4.15,0,0,1-.29,1.57,3.43,3.43,0,0,1-.81,1.21,3.63,3.63,0,0,1-1.24.78A4.38,4.38,0,0,1,302.8,155.69Zm.45-.84a1.49,1.49,0,0,0,.85-.23,1.6,1.6,0,0,0,.52-.58,2.5,2.5,0,0,0,.26-.79,5.31,5.31,0,0,0,.07-.86,5.76,5.76,0,0,0-.11-1.09,3.68,3.68,0,0,0-.37-1.05,2.4,2.4,0,0,0-.68-.8,1.69,1.69,0,0,0-1-.31,1.49,1.49,0,0,0-.85.22,1.63,1.63,0,0,0-.53.58,2.68,2.68,0,0,0-.27.79,4.9,4.9,0,0,0-.08.86,5.62,5.62,0,0,0,.11,1.1,3.67,3.67,0,0,0,.37,1,2.35,2.35,0,0,0,.68.79A1.7,1.7,0,0,0,303.25,154.85Z" transform="translate(-217.85 -48.52)"/><path class="cls-1" d="M307.64,148.89l1-.24.78-.17.55-.1.28,0c.2,0,.31.12.31.34v.49l.67-.34c.23-.11.45-.2.67-.28a5.11,5.11,0,0,1,.63-.18,2.42,2.42,0,0,1,.53-.07,1.08,1.08,0,0,1,.45.09,1,1,0,0,1,.33.24,1,1,0,0,1,.2.34,1.19,1.19,0,0,1,.07.39,1.17,1.17,0,0,1-.07.4,1,1,0,0,1-.22.35,1.05,1.05,0,0,1-.37.24,1.34,1.34,0,0,1-.51.09h-.31l-.1,0v-.21a.85.85,0,0,0-.18-.61.62.62,0,0,0-.45-.18,2,2,0,0,0-.64.12,4.52,4.52,0,0,0-.7.32v5.36a.25.25,0,0,1-.23.27l-.35.05-.36,0-.32,0H309c-.15,0-.23-.08-.23-.24v-5.2a1.08,1.08,0,0,0-.16-.69.64.64,0,0,0-.51-.18h-.21l-.24,0Z" transform="translate(-217.85 -48.52)"/><path class="cls-1" d="M319,148.89l1-.24.78-.17.55-.1.28,0c.2,0,.31.12.31.34v.49l.67-.34c.23-.11.45-.2.67-.28a5.18,5.18,0,0,1,.63-.18,2.42,2.42,0,0,1,.53-.07,1.08,1.08,0,0,1,.45.09,1,1,0,0,1,.33.24,1,1,0,0,1,.21.34,1.19,1.19,0,0,1,.07.39,1.15,1.15,0,0,1-.07.4,1,1,0,0,1-.22.35,1.06,1.06,0,0,1-.37.24,1.34,1.34,0,0,1-.52.09h-.31l-.11,0v-.21a.86.86,0,0,0-.18-.61.62.62,0,0,0-.45-.18,2,2,0,0,0-.64.12,4.51,4.51,0,0,0-.7.32v5.36a.25.25,0,0,1-.23.27l-.35.05-.36,0-.32,0h-.22c-.15,0-.23-.08-.23-.24v-5.2a1.09,1.09,0,0,0-.16-.69.64.64,0,0,0-.51-.18h-.2l-.24,0Z" transform="translate(-217.85 -48.52)"/><path class="cls-1" d="M332.45,154.69c-.31.15-.63.28-1,.41s-.67.23-1,.32a8.6,8.6,0,0,1-.9.2,4,4,0,0,1-.69.07,3.11,3.11,0,0,1-1.37-.29,3,3,0,0,1-1-.77,3.32,3.32,0,0,1-.62-1.11,4.08,4.08,0,0,1-.21-1.3,3.85,3.85,0,0,1,.33-1.6,3.72,3.72,0,0,1,.88-1.23,4,4,0,0,1,1.3-.79,4.38,4.38,0,0,1,1.57-.28,2.57,2.57,0,0,1,1,.17,2,2,0,0,1,.7.46,2,2,0,0,1,.44.7,2.53,2.53,0,0,1,.15.9,4.35,4.35,0,0,1-.16,1l-4.48.24a3.53,3.53,0,0,0,.24,1.1,2.46,2.46,0,0,0,1.46,1.42,3.41,3.41,0,0,0,1.22.2,4.68,4.68,0,0,0,1-.11,5.81,5.81,0,0,0,.93-.27ZM330.33,151a2,2,0,0,0,0-.26c0-.08,0-.17,0-.26a1.55,1.55,0,0,0-.08-.51,1.26,1.26,0,0,0-.23-.42,1.08,1.08,0,0,0-.38-.28,1.28,1.28,0,0,0-.52-.1,1.74,1.74,0,0,0-.79.17,1.56,1.56,0,0,0-.54.44,1.87,1.87,0,0,0-.32.64,3.06,3.06,0,0,0-.11.77Z" transform="translate(-217.85 -48.52)"/><path class="cls-1" d="M333,148.76l.54,0,.58,0v-1.47a.81.81,0,0,1,0-.29.27.27,0,0,1,.17-.14l.38-.13.37-.12.31-.09.21,0c.14,0,.21.08.21.24v1.95l1.18,0,.83,0a.22.22,0,0,1,.14,0,.18.18,0,0,1,.06.15v0l0,.59h-2.17v4.05a1.15,1.15,0,0,0,.34.93,1.33,1.33,0,0,0,.9.29,2.94,2.94,0,0,0,.58-.06,4.6,4.6,0,0,0,.75-.22l.2.58-.74.3-.72.24q-.34.1-.62.16a2.27,2.27,0,0,1-.43.06,2.19,2.19,0,0,1-.79-.13,1.65,1.65,0,0,1-.62-.4,1.87,1.87,0,0,1-.4-.65,2.56,2.56,0,0,1-.14-.89v-4.24l-1.1,0Z" transform="translate(-217.85 -48.52)"/><path class="cls-1" d="M338.94,148.89l1-.24.78-.17.55-.1.28,0c.2,0,.31.12.31.34v.49l.67-.34q.34-.16.67-.28a5.16,5.16,0,0,1,.63-.18,2.42,2.42,0,0,1,.53-.07,1.08,1.08,0,0,1,.45.09,1,1,0,0,1,.33.24,1,1,0,0,1,.21.34,1.19,1.19,0,0,1,.07.39,1.16,1.16,0,0,1-.07.4,1,1,0,0,1-.22.35,1.06,1.06,0,0,1-.37.24,1.35,1.35,0,0,1-.52.09h-.31l-.1,0v-.21a.86.86,0,0,0-.18-.61.62.62,0,0,0-.45-.18,2,2,0,0,0-.64.12,4.52,4.52,0,0,0-.7.32v5.36a.25.25,0,0,1-.23.27l-.35.05-.36,0-.32,0h-.22q-.23,0-.23-.24v-5.2a1.08,1.08,0,0,0-.16-.69.63.63,0,0,0-.5-.18h-.21l-.24,0Z" transform="translate(-217.85 -48.52)"/><path class="cls-1" d="M345.67,148.89l1-.24.78-.17.55-.1.28,0c.2,0,.31.12.31.34v6.54a.25.25,0,0,1-.23.27l-.35.05-.36,0-.31,0h-.22c-.15,0-.23-.08-.23-.24v-5.2a1.09,1.09,0,0,0-.16-.69.63.63,0,0,0-.51-.18H346l-.24,0Zm2.93-3.5a.92.92,0,0,1-.27.74,1.19,1.19,0,0,1-.79.23.83.83,0,0,1-.66-.26,1,1,0,0,1-.23-.72.89.89,0,0,1,.28-.74,1.26,1.26,0,0,1,.8-.22.81.81,0,0,1,.65.25A1,1,0,0,1,348.6,145.39Z" transform="translate(-217.85 -48.52)"/><path class="cls-1" d="M357,154.69a10.42,10.42,0,0,1-1,.41q-.51.18-1,.32a8.6,8.6,0,0,1-.9.2,3.93,3.93,0,0,1-.69.07,3.11,3.11,0,0,1-1.37-.29,3,3,0,0,1-1-.77,3.32,3.32,0,0,1-.62-1.11,4.09,4.09,0,0,1-.21-1.3,3.85,3.85,0,0,1,.32-1.6,3.71,3.71,0,0,1,.88-1.23,4,4,0,0,1,1.3-.79,4.37,4.37,0,0,1,1.57-.28,2.56,2.56,0,0,1,1,.17,2,2,0,0,1,.71.46,2,2,0,0,1,.44.7,2.55,2.55,0,0,1,.15.9,4.35,4.35,0,0,1-.16,1l-4.48.24a3.52,3.52,0,0,0,.24,1.1,2.46,2.46,0,0,0,1.46,1.42,3.42,3.42,0,0,0,1.22.2,4.69,4.69,0,0,0,1-.11,5.83,5.83,0,0,0,.93-.27ZM354.93,151a2,2,0,0,0,0-.26c0-.08,0-.17,0-.26a1.56,1.56,0,0,0-.08-.51,1.24,1.24,0,0,0-.23-.42,1.06,1.06,0,0,0-.38-.28,1.28,1.28,0,0,0-.51-.1,1.73,1.73,0,0,0-.79.17,1.56,1.56,0,0,0-.54.44,1.89,1.89,0,0,0-.32.64,3.11,3.11,0,0,0-.11.77Z" transform="translate(-217.85 -48.52)"/><path class="cls-1" d="M363.58,148.81a.5.5,0,0,1,.11-.19.53.53,0,0,1,.2-.1l.3-.06.3,0,.26,0h.19c.11,0,.17,0,.17.11a.37.37,0,0,1,0,.16l-3.24,6.79c0,.1-.1.16-.16.17l-.28,0-.26,0a.21.21,0,0,1-.1,0,.3.3,0,0,1-.09-.12l-2.37-5.44a1.44,1.44,0,0,0-.4-.6.84.84,0,0,0-.51-.15h-.2l-.22,0-.06-.46.79-.21.74-.17.58-.11.3,0a.24.24,0,0,1,.21.09,1.17,1.17,0,0,1,.13.25l1.84,4.75h0Z" transform="translate(-217.85 -48.52)"/><path class="cls-1" d="M372.15,154.69a10.33,10.33,0,0,1-1,.41c-.34.12-.67.23-1,.32a8.54,8.54,0,0,1-.9.2,4,4,0,0,1-.69.07,3.12,3.12,0,0,1-1.37-.29,3,3,0,0,1-1-.77,3.34,3.34,0,0,1-.62-1.11,4.08,4.08,0,0,1-.21-1.3,3.86,3.86,0,0,1,.32-1.6,3.74,3.74,0,0,1,.88-1.23,4,4,0,0,1,1.3-.79,4.38,4.38,0,0,1,1.57-.28,2.56,2.56,0,0,1,1,.17,2,2,0,0,1,.71.46,2,2,0,0,1,.44.7,2.54,2.54,0,0,1,.15.9,4.31,4.31,0,0,1-.16,1l-4.48.24a3.47,3.47,0,0,0,.24,1.1,2.47,2.47,0,0,0,1.46,1.42,3.42,3.42,0,0,0,1.22.2,4.68,4.68,0,0,0,1-.11,5.81,5.81,0,0,0,.93-.27ZM370,151a2.05,2.05,0,0,0,0-.26c0-.08,0-.17,0-.26A1.55,1.55,0,0,0,370,150a1.25,1.25,0,0,0-.23-.42,1.08,1.08,0,0,0-.38-.28,1.28,1.28,0,0,0-.52-.1,1.74,1.74,0,0,0-.79.17,1.57,1.57,0,0,0-.54.44,1.88,1.88,0,0,0-.32.64,3,3,0,0,0-.11.77Z" transform="translate(-217.85 -48.52)"/><path class="cls-1" d="M372.79,148.89l1-.24.78-.17.55-.1.28,0c.2,0,.31.12.31.34v.49l.67-.34q.34-.16.67-.28a5.17,5.17,0,0,1,.63-.18,2.42,2.42,0,0,1,.53-.07,1.08,1.08,0,0,1,.45.09,1,1,0,0,1,.33.24,1,1,0,0,1,.2.34,1.19,1.19,0,0,1,0,.8,1,1,0,0,1-.22.35,1.06,1.06,0,0,1-.37.24,1.34,1.34,0,0,1-.52.09h-.31l-.1,0v-.21a.86.86,0,0,0-.18-.61.62.62,0,0,0-.45-.18,2,2,0,0,0-.64.12,4.51,4.51,0,0,0-.7.32v5.36a.25.25,0,0,1-.23.27l-.35.05-.36,0-.32,0h-.22c-.15,0-.23-.08-.23-.24v-5.2a1.09,1.09,0,0,0-.16-.69.64.64,0,0,0-.51-.18h-.21l-.24,0Z" transform="translate(-217.85 -48.52)"/><path class="cls-1" d="M384,143.19c.7-.19,1.28-.33,1.73-.41a7.67,7.67,0,0,1,.81-.12c.2,0,.3.11.3.34v8.64l2.62-2.82a.74.74,0,0,1,.19-.14,1.09,1.09,0,0,1,.22-.09l.46-.1.48-.07.42,0h.26c.11,0,.16.05.16.15a.2.2,0,0,1-.08.12l-3.19,2.52,3.48,4.08a.24.24,0,0,1,0,.12c0,.07,0,.12-.13.14l-.39.05-.44,0-.4,0h-.27a.44.44,0,0,1-.21-.05.91.91,0,0,1-.2-.19l-3-3.56v3.42a.25.25,0,0,1-.23.27l-.35.05-.36,0-.31,0h-.22c-.15,0-.23-.08-.23-.24V144.49a1.08,1.08,0,0,0-.16-.69.67.67,0,0,0-.53-.19l-.39,0Z" transform="translate(-217.85 -48.52)"/><path class="cls-1" d="M399,154.69a10.4,10.4,0,0,1-1,.41q-.5.18-1,.32a8.55,8.55,0,0,1-.9.2,3.93,3.93,0,0,1-.69.07,3.11,3.11,0,0,1-1.37-.29,3,3,0,0,1-1-.77,3.35,3.35,0,0,1-.61-1.11,4.07,4.07,0,0,1-.21-1.3,3.85,3.85,0,0,1,.32-1.6,3.72,3.72,0,0,1,.88-1.23,4,4,0,0,1,1.3-.79,4.38,4.38,0,0,1,1.57-.28,2.57,2.57,0,0,1,1,.17,2,2,0,0,1,.71.46,2,2,0,0,1,.44.7,2.56,2.56,0,0,1,.15.9,4.33,4.33,0,0,1-.16,1l-4.48.24a3.53,3.53,0,0,0,.24,1.1,2.47,2.47,0,0,0,1.46,1.42,3.42,3.42,0,0,0,1.22.2,4.7,4.7,0,0,0,1-.11,5.79,5.79,0,0,0,.93-.27ZM396.86,151a1.71,1.71,0,0,0,0-.26c0-.08,0-.17,0-.26a1.57,1.57,0,0,0-.08-.51,1.24,1.24,0,0,0-.24-.42,1.06,1.06,0,0,0-.38-.28,1.28,1.28,0,0,0-.52-.1,1.73,1.73,0,0,0-.79.17,1.58,1.58,0,0,0-.54.44,1.89,1.89,0,0,0-.32.64,3,3,0,0,0-.12.77Z" transform="translate(-217.85 -48.52)"/><path class="cls-1" d="M399.62,148.89l.95-.24.76-.17.54-.1.28,0c.19,0,.3.12.32.34l0,.4.88-.31.84-.25.73-.17a3.19,3.19,0,0,1,.56-.06,2.28,2.28,0,0,1,.93.17,1.7,1.7,0,0,1,.63.48,2,2,0,0,1,.36.74,3.78,3.78,0,0,1,.11,1l0,4.59a.25.25,0,0,1-.23.27l-.34.05-.36,0-.32,0H406q-.23,0-.23-.24l0-3.8v-.14a4.39,4.39,0,0,0-.08-.9,1.7,1.7,0,0,0-.27-.65,1.17,1.17,0,0,0-.5-.4,1.93,1.93,0,0,0-.76-.13,3.87,3.87,0,0,0-.64.1,5.61,5.61,0,0,0-1.11.37v5.42a.25.25,0,0,1-.23.27l-.34.05-.36,0-.33,0H401a.21.21,0,0,1-.23-.24v-5.2a1.09,1.09,0,0,0-.16-.69.65.65,0,0,0-.51-.18h-.2l-.24,0Z" transform="translate(-217.85 -48.52)"/><path class="cls-1" d="M409,148.89l.95-.24.76-.17.54-.1.28,0c.19,0,.3.12.32.34l0,.4.88-.31.84-.25.73-.17a3.18,3.18,0,0,1,.56-.06,2.3,2.3,0,0,1,.93.17,1.7,1.7,0,0,1,.63.48,1.94,1.94,0,0,1,.36.74,3.71,3.71,0,0,1,.11,1l0,4.59a.25.25,0,0,1-.23.27l-.34.05-.36,0-.32,0h-.21c-.15,0-.23-.08-.23-.24l0-3.8v-.14a4.33,4.33,0,0,0-.08-.9,1.69,1.69,0,0,0-.27-.65,1.18,1.18,0,0,0-.5-.4,1.94,1.94,0,0,0-.76-.13,3.87,3.87,0,0,0-.64.1,5.6,5.6,0,0,0-1.11.37v5.42a.25.25,0,0,1-.23.27l-.34.05-.36,0-.32,0h-.21a.21.21,0,0,1-.23-.24v-5.2a1.09,1.09,0,0,0-.16-.69.65.65,0,0,0-.52-.18h-.2l-.24,0Z" transform="translate(-217.85 -48.52)"/><path class="cls-1" d="M425.29,154.69a10.38,10.38,0,0,1-1,.41q-.51.18-1,.32a8.69,8.69,0,0,1-.9.2,4,4,0,0,1-.69.07,3.11,3.11,0,0,1-1.37-.29,3,3,0,0,1-1-.77,3.3,3.3,0,0,1-.61-1.11,4.07,4.07,0,0,1-.21-1.3,3.86,3.86,0,0,1,.32-1.6,3.76,3.76,0,0,1,.88-1.23,4,4,0,0,1,1.3-.79,4.36,4.36,0,0,1,1.57-.28,2.56,2.56,0,0,1,1,.17,1.91,1.91,0,0,1,1.15,1.16,2.56,2.56,0,0,1,.15.9,4.29,4.29,0,0,1-.16,1l-4.48.24a3.51,3.51,0,0,0,.24,1.1,2.46,2.46,0,0,0,1.46,1.42,3.41,3.41,0,0,0,1.22.2,4.68,4.68,0,0,0,1-.11,5.85,5.85,0,0,0,.93-.27ZM423.17,151a2.32,2.32,0,0,0,0-.26c0-.08,0-.17,0-.26a1.57,1.57,0,0,0-.08-.51,1.27,1.27,0,0,0-.24-.42,1.05,1.05,0,0,0-.38-.28,1.29,1.29,0,0,0-.52-.1,1.74,1.74,0,0,0-.79.17,1.57,1.57,0,0,0-.54.44,1.85,1.85,0,0,0-.32.64,3,3,0,0,0-.11.77Z" transform="translate(-217.85 -48.52)"/><path class="cls-1" d="M425.67,143.19c.7-.19,1.28-.33,1.73-.41a7.77,7.77,0,0,1,.81-.12c.21,0,.31.11.31.34v12.24a.25.25,0,0,1-.23.27l-.35.05-.36,0-.31,0H427c-.15,0-.23-.08-.23-.24V144.49a1.08,1.08,0,0,0-.16-.69.68.68,0,0,0-.54-.19l-.39,0Z" transform="translate(-217.85 -48.52)"/><path class="cls-2" d="M298.15,85.23c-2.36-2.26-5-9.39.51-12,3.84-1.81,12.42-5.8,13.91-9,1.06-2.28.39-6.05,4.74-9.39,5.42-4.16,8.74-4.84,13.77-4.84a21,21,0,0,1,6.56,1C348.11,53.86,352,62,356.58,73.26c3.24,8,12.3,22.81,27.87,25.12" transform="translate(-217.85 -48.52)"/><path class="cls-3" d="M298.15,85.23c-2.36-2.26-5-9.39.51-12,3.84-1.81,12.42-5.8,13.91-9,1.06-2.28.39-6.05,4.74-9.39,5.42-4.16,8.74-4.84,13.77-4.84a21,21,0,0,1,6.56,1C348.11,53.86,352,62,356.58,73.26c3.24,8,12.3,22.81,27.87,25.12" transform="translate(-217.85 -48.52)"/><line class="cls-4" y1="87.36" x2="244.15" y2="87.36"/><path class="cls-5" d="M234,107.55h9.59l8.64,17.38,8.57-17.38h9v.6H269a4.31,4.31,0,0,0-3.15,1,4.22,4.22,0,0,0-1,3.11v13.22a4.19,4.19,0,0,0,1,3.11,4.28,4.28,0,0,0,3.14,1h.84v.63H255.05v-.63h1a4.28,4.28,0,0,0,3.13-1,4.21,4.21,0,0,0,1-3.11V110.06h-.07l-9.86,20.21h-.56l-10-20.15h-.07v14.65a5.27,5.27,0,0,0,.59,2.59A4,4,0,0,0,242,129a6.62,6.62,0,0,0,2.79.63v.63H234v-.63h.23a4.66,4.66,0,0,0,3.48-1.28,4.74,4.74,0,0,0,1.26-3.48V112.29a4.23,4.23,0,0,0-1-3.12,4.33,4.33,0,0,0-3.15-1H234Z" transform="translate(-217.85 -48.52)"/><path class="cls-5" d="M272.66,129.64h.64a4.3,4.3,0,0,0,3.14-1,4.21,4.21,0,0,0,1-3.11q.13-.88.2-1.55t.09-1.54q0-.87,0-2.19-.07-5.56-.33-8.37a6,6,0,0,0-.37-1.77,2.62,2.62,0,0,0-.81-1.06,4.39,4.39,0,0,0-3-.86h-.64v-.6h14.45v.6h-.64a4.29,4.29,0,0,0-3.14,1,4.23,4.23,0,0,0-1,3.12v13.22a4.21,4.21,0,0,0,1,3.11,4.28,4.28,0,0,0,3.13,1h.64v.63H272.66Z" transform="translate(-217.85 -48.52)"/><path class="cls-5" d="M305.18,119.15H300v6.36a4.19,4.19,0,0,0,1,3.11,4.28,4.28,0,0,0,3.14,1h.67v.63H290.38v-.63H291a4.3,4.3,0,0,0,3.14-1,4.21,4.21,0,0,0,1-3.11V112.29a4.23,4.23,0,0,0-1-3.12,4.33,4.33,0,0,0-3.15-1h-.62v-.6h17.79a24.84,24.84,0,0,1,5.72.52,7,7,0,0,1,3.34,1.76,5.3,5.3,0,0,1,1.13,1.66,4.75,4.75,0,0,1,.42,1.9,4.67,4.67,0,0,1-2.69,4.13,12,12,0,0,1-2.73,1,22.57,22.57,0,0,1-3.43.57q-1.3.1-4,.1v.06q1.32.85,2.38,1.4a16.93,16.93,0,0,0,2.15.94,21.78,21.78,0,0,0,2.46.69l.54.81.8,1.17.61.9q.92,1.38,1.75,2.4a8.8,8.8,0,0,0,1.37,1.42,5.57,5.57,0,0,0,3.05.7h.64v.63h-8.61Zm-5.16-.6h6.54a10.91,10.91,0,0,0,3.8-.56,4.34,4.34,0,0,0,2.22-1.71,5.39,5.39,0,0,0,.73-3q0-5.17-6.65-5.17H300Z" transform="translate(-217.85 -48.52)"/><path class="cls-5" d="M336.59,107.1h.61L346.43,127a6.23,6.23,0,0,0,1,1.53,3.29,3.29,0,0,0,1.24.87,4.48,4.48,0,0,0,1.63.27h.61v.63H337.57v-.63h1.74a3.91,3.91,0,0,0,1.9-.35,1.16,1.16,0,0,0,.6-1.08,3.33,3.33,0,0,0-.24-1.11q-.24-.65-1-2.36l-.15-.32q-.1-.23-.21-.44l-.38-.83h-9.72l-.74,1.69a4.46,4.46,0,0,0-.36,1.74,3,3,0,0,0,.42,1.48,2.83,2.83,0,0,0,1.09,1.1,3.16,3.16,0,0,0,.8.35,5.49,5.49,0,0,0,1,.12v.63h-9.35v-.63a6.22,6.22,0,0,0,1.62-.36,5.9,5.9,0,0,0,1.34-.81,13.1,13.1,0,0,0,3.4-5Zm-1.74,5.32-4.5,10.13h9.12Z" transform="translate(-217.85 -48.52)"/><path class="cls-5" d="M353.49,107.55H368v.57h-.67a4.28,4.28,0,0,0-3.12,1,4.21,4.21,0,0,0-1.05,3.13v9.89L374,113.56a7.64,7.64,0,0,0,1.45-1.46,2.33,2.33,0,0,0,.37-1.31,2.25,2.25,0,0,0-1.05-1.94,5,5,0,0,0-2.86-.72h-.54v-.57h13.42v.57h-.33q-2.78,0-7.9,4.1l-4.52,3.56L379,126.3a8.21,8.21,0,0,0,2.42,2.55,5.52,5.52,0,0,0,3,.79h.43v.63H370.67v-.63h.74q3.14,0,3.14-1.46a1.33,1.33,0,0,0-.14-.56,9.46,9.46,0,0,0-.57-1l-5.26-8-5.42,4.29v2.6a4.15,4.15,0,0,0,1.05,3.11,4.3,4.3,0,0,0,3.12,1H368v.63H353.52v-.63h.64a4.34,4.34,0,0,0,3.16-1,4.17,4.17,0,0,0,1-3.11V112.29a4.22,4.22,0,0,0-1-3.13,4.32,4.32,0,0,0-3.16-1h-.67Z" transform="translate(-217.85 -48.52)"/><path class="cls-5" d="M386.68,107.55H402.6v.6h-1.82a4.32,4.32,0,0,0-3.14,1,4.2,4.2,0,0,0-1,3.11v11.53a6.07,6.07,0,0,0,.92,3.38,5.9,5.9,0,0,0,2.65,2.18,10.06,10.06,0,0,0,4.11.76,12.38,12.38,0,0,0,3.89-.59,7.28,7.28,0,0,0,2.87-1.63,7.58,7.58,0,0,0,2-5.56v-8.13q0-3.9-2.3-5.3a4.49,4.49,0,0,0-1.38-.57,11.41,11.41,0,0,0-2.09-.2v-.6h11.14v.6a7.58,7.58,0,0,0-1.64.28,4.64,4.64,0,0,0-1.25.65,4.41,4.41,0,0,0-1.43,1.86,7,7,0,0,0-.49,2.74v9.06a7.33,7.33,0,0,1-2,5.53,6.84,6.84,0,0,1-2.35,1.5,18,18,0,0,1-6.26,1,21,21,0,0,1-4.86-.52,11,11,0,0,1-3.61-1.48,6,6,0,0,1-2.69-5.27V112.29q0-4.13-4.17-4.13h-.94Z" transform="translate(-217.85 -48.52)"/><path class="cls-5" d="M420,107.55h15.65v.6H434a4.3,4.3,0,0,0-3.14,1,4.23,4.23,0,0,0-1,3.12v17.38h5.94a7.38,7.38,0,0,0,3.32-.77,8.26,8.26,0,0,0,2.71-2.15A17.42,17.42,0,0,0,443,125a12.9,12.9,0,0,0,1-2q.48-1.2.94-2.76h.61v10H420l0-.6h.85q4.17,0,4.17-4.16V112.29q0-4.13-4.17-4.13H420Z" transform="translate(-217.85 -48.52)"/></svg>